<?xml version="1.0" encoding="UTF-8"?>
<svg version="1.1" viewBox="0 0 149 126" xmlns="http://www.w3.org/2000/svg">
<defs>
<radialGradient id="b" cx="65.489%" cy="30.425%" r="100%">
<stop stop-color="#FF8F8F" offset="0"/>
<stop stop-color="#BF003F" offset="1"/>
</radialGradient>
<radialGradient id="a" cx="57.131%" cy="34.22%" r="104.24%" gradientTransform="translate(.57131 .3422) scale(1 .82105) rotate(90) scale(1 .74579) translate(-.57131 -.3422)">
<stop stop-color="#F9F1A6" offset="0"/>
<stop stop-color="#DCD104" offset="1"/>
</radialGradient>
</defs>
<g fill="none" fill-rule="evenodd">
<g transform="translate(-887 -471)">
<g transform="translate(887 468)">
<ellipse cx="40" cy="111" rx="30" ry="8" fill="#142432"/>
<ellipse cx="105" cy="121" rx="30" ry="8" fill="#142432"/>
<circle cx="45.5" cy="66.071" r="45.5" fill="url(#b)"/>
<circle cx="28.714" cy="83.071" r="16.714" fill="#BF003F"/>
<g transform="translate(44.328 14.813) rotate(-15) translate(-6.5 -13)">
<path transform="translate(6.2881 13.283) rotate(10) translate(-6.2881 -13.283)" d="m5.2925 1.2118h1.9999c1.6569 0 3 1.3431 3 3 0 0.038444-7.39e-4 0.076884-0.0022165 0.1153l-0.70169 18.244c-0.059784 1.5544-1.3372 2.7837-2.8928 2.7837h-0.0076209c-1.5676 0-2.8709-1.2069-2.9912-2.7699l-1.3956-18.143c-0.12707-1.652 1.1091-3.0942 2.7611-3.2213 0.076555-0.0058889 0.15331-0.0088366 0.23009-0.0088366z" fill="#6E6860"/>
<path transform="translate(8.0861 13.282) rotate(10) translate(-8.0861 -13.282)" d="m8.5529 1.6761c1.0813 0.27033 1.8239 1.2633 1.7774 2.3769l-0.76918 18.46c-0.047253 1.1341-0.83566 2.1016-1.9368 2.3769-0.76955 0.19239-1.5494-0.2755-1.7417-1.045-0.032965-0.13186-0.047046-0.26773-0.041823-0.40355l0.78143-20.317c0.033002-0.85804 0.75534-1.5269 1.6134-1.4939 0.10706 0.0041175 0.2134 0.019289 0.31733 0.045273z" fill="#000" fill-opacity=".21"/>
</g>
<g transform="translate(107.6 68.948) rotate(-10) translate(-38 -55)">
<path d="m17.565 39.085c-0.017906-0.3593-0.026966-0.72092-0.026966-1.0847 0-11.839 9.5972-21.436 21.436-21.436 11.839 0 21.436 9.5972 21.436 21.436 0 0.79219-0.042973 1.5743-0.12671 2.3443 9.5229 6.9053 15.716 18.121 15.716 30.784 0 20.987-17.013 38-38 38s-38-17.013-38-38c0-13.465 7.003-25.294 17.565-32.044z" fill="url(#a)"/>
<g transform="translate(33.242 .095182)">
<path transform="translate(4.319 10.872) rotate(2) translate(-4.319 -10.872)" d="m3.9226 0.50823h0.81759c1.6569 0 3 1.3431 3 3 0 0.038444-7.3896e-4 0.076884-0.0022165 0.1153l-0.58547 15.222c-0.051326 1.3345-1.1481 2.3898-2.4835 2.3898-1.3495 0-2.4715-1.039-2.575-2.3846l-1.1625-15.113c-0.12707-1.652 1.1091-3.0942 2.7611-3.2213 0.076555-0.0058889 0.15331-0.0088365 0.23009-0.0088365z" fill="#6E6860"/>
<path transform="translate(5.8626 10.87) rotate(2) translate(-5.8626 -10.87)" d="m6.2634 0.90683c0.92835 0.23209 1.5658 1.0846 1.526 2.0407l-0.66037 15.849c-0.040568 0.97364-0.71744 1.8043-1.6628 2.0407-0.66068 0.16517-1.3302-0.23652-1.4953-0.8972-0.028301-0.11321-0.040391-0.22986-0.035906-0.34646l0.67087-17.443c0.028333-0.73665 0.64848-1.3109 1.3851-1.2825 0.09191 0.003535 0.18321 0.01656 0.27244 0.038868z" fill="#000" fill-opacity=".2"/>
</g>
<circle cx="52.127" cy="58.639" r="15.262" fill="#EEDF53"/>
</g>
<g transform="translate(0 4)">
<path d="m20 15c7.3638 0 14.03-2.5 20-7.5-5.9695-5-12.636-7.5-20-7.5s-14.03 1.25-20 3.75c5.9695 7.5 12.636 11.25 20 11.25z" fill="#00FF95"/>
<path d="m20 15c7.3638 0 14.03-2.5 20-7.5l-40-3.75c5.9695 7.5 12.636 11.25 20 11.25z" fill="#0FC27D"/>
</g>
</g>
</g>
</g>
</svg>
