<?xml version="1.0" encoding="UTF-8"?>
<svg version="1.1" viewBox="0 0 200 179" xmlns="http://www.w3.org/2000/svg">
<defs>
<linearGradient id="d" x1="9.0735%" x2="101.5%" y1="92.842%" y2="-.5%">
<stop stop-color="#5941F4" offset="0"/>
<stop stop-color="#766FFF" offset="1"/>
</linearGradient>
<linearGradient id="c" x1="-42.144%" x2="98.826%" y1="125.01%" y2="2.2009%">
<stop stop-color="#5941F4" offset="0"/>
<stop stop-color="#7770FF" offset="1"/>
</linearGradient>
<linearGradient id="b" x1="2.4686%" x2="95.152%" y1="99.512%" y2="5.9104%">
<stop stop-color="#501CFC" offset="0"/>
<stop stop-color="#6A63FC" offset="1"/>
</linearGradient>
<linearGradient id="a" x1="4.6417%" x2="101.5%" y1="97.317%" y2="-.5%">
<stop stop-color="#5038EF" offset="0"/>
<stop stop-color="#746EFF" offset="1"/>
</linearGradient>
</defs>
<g fill="none" fill-rule="evenodd">
<g transform="translate(16 19)">
<ellipse cx="74.375" cy="128.81" rx="74.375" ry="12.531" fill="#000729" fill-opacity=".23"/>
<g transform="translate(76.25)">
<path d="m6 3.3981h19.25c3.3137 0 6 2.6863 6 6v119.89c0 6.6274-5.3726 12-12 12h-7.25c-6.6274 0-12-5.3726-12-12l8.8818e-16 -119.89c-4.0581e-16 -3.3137 2.6863-6 6-6z" fill="url(#d)"/>
<path d="m15.625 17.243c8.6294 0 15.625-3.8601 15.625-8.6217 0-4.7616-6.9956-8.6217-15.625-8.6217-8.6294 0-15.625 3.8601-15.625 8.6217 0 4.7616 6.9956 8.6217 15.625 8.6217z" fill="url(#c)"/>
</g>
<g transform="translate(10 89.864)">
<path d="m15.192 0.067938c1.577-0.16495 3.1159 0.017275 4.5036 0.53043l87.551 31.501c5.4411 2.0121 8.9633 7.8048 8.9633 13.546 0 4.6763-2.296 9.927-7.3021 12.74-3.7239 2.0926-7.8385 2.3049-12.154 1.443l-84.53-30.781c-0.91861-0.33969-1.878-0.814-2.8223-1.4135-5.4829-1.9765-9.4022-7.2205-9.4022-13.379 0-7.853 6.3731-14.219 14.235-14.219 0.32174 0 0.64099 0.010663 0.95741 0.031654z" fill="url(#b)"/>
<ellipse cx="101.42" cy="45.656" rx="14.828" ry="14.812" fill="url(#a)"/>
</g>
</g>
</g>
</svg>
