<?xml version="1.0" encoding="UTF-8"?>
<svg version="1.1" viewBox="0 0 200 211" xmlns="http://www.w3.org/2000/svg">
<defs>
<linearGradient id="d" x1="50%" x2="50%" y1="125.35%" y2="2.4474%">
<stop stop-color="#5AC5FF" offset="0"/>
<stop stop-color="#50E3C2" offset="1"/>
</linearGradient>
<linearGradient id="c" x1="-61.108%" x2="127.38%" y1="100%">
<stop stop-color="#4CD2B4" offset="0"/>
<stop stop-color="#7CFEE1" offset="1"/>
</linearGradient>
<linearGradient id="b" x1="100%" x2="-42.893%" y1="100%">
<stop stop-color="#5AC5FF" offset="0"/>
<stop stop-color="#50E3C2" offset="1"/>
</linearGradient>
<linearGradient id="a" x1="187.88%" x2="-94.02%" y2="166.07%">
<stop stop-color="#5AC5FF" offset="0"/>
<stop stop-color="#5ECFF5" offset="0"/>
<stop stop-color="#6BF2D4" offset="1"/>
</linearGradient>
</defs>
<g fill="none" fill-rule="evenodd">
<ellipse cx="87.5" cy="181.5" rx="74.5" ry="12.5" fill="#000729" fill-opacity=".23"/>
<g transform="translate(57 14)">
<path d="m5.2113 3.4228h18.486c2.4315 0 4.5505 1.656 5.1381 4.0154l-2.6e-6 155.14c0 1.4418-0.6224 2.8134-1.7075 3.7629-3.241 2.8359-7.4778 4.2539-12.71 4.2539-5.2326 0-9.4695-1.418-12.71-4.2539l2.81e-6 -3e-6c-1.0851-0.94944-1.7075-2.3211-1.7075-3.7629l8.7663e-13 -155.07h8.8818e-16c0.58703-2.4015 2.7391-4.0909 5.2113-4.0909z" fill="url(#d)"/>
<path d="m14.418 15c7.9628 0 14.418-3.3579 14.418-7.5 0-4.1421-6.4551-7.5-14.418-7.5-7.9628 0-14.418 3.3579-14.418 7.5 0 4.1421 6.4551 7.5 14.418 7.5z" fill="url(#c)"/>
</g>
<g transform="translate(118.12 168.58) scale(-1 1) translate(-40 -37.5)">
<path transform="translate(39.671 37.444) scale(-1 1) rotate(40) translate(-39.671 -37.444)" d="m20.356 19.287c0.63362 0.063655 1.2823 0.15768 1.9459 0.28033l43.292 6.3418c5.5987 2.0653 10.304 8.1728 10.304 14.066 0 4.8-2.3625 10.19-7.5135 13.077-3.8317 2.1479-5.8938 3.3091-10.334 2.4244l-43.484-7.3842c-2.6574-0.3865-5.4565-2.0815-7.4393-4.7066-2.2908-2.5757-3.6817-5.9644-3.6817-9.6767 0-8.0608 6.5576-14.595 14.647-14.595 0.77013 0 1.5264 0.059229 2.2644 0.17336z" fill="url(#b)"/>
<ellipse transform="translate(25.272 53.611) scale(-1 1) translate(-25.272 -53.611)" cx="25.272" cy="53.611" rx="15.257" ry="15.204" fill="url(#a)"/>
</g>
</g>
</svg>
