<?xml version="1.0" encoding="UTF-8"?>
<svg version="1.1" viewBox="0 0 155 130" xmlns="http://www.w3.org/2000/svg" xmlns:xlink="http://www.w3.org/1999/xlink">
<defs>
<radialGradient id="e" cx="65.489%" cy="30.425%" r="100%">
<stop stop-color="#FF8F8F" offset="0"/>
<stop stop-color="#BF003F" offset="1"/>
</radialGradient>
<radialGradient id="d" cx="57.131%" cy="34.22%" r="153.32%" gradientTransform="translate(.57131 .3422) scale(1 .35268) rotate(33.368) scale(1 1.5911) translate(-.57131 -.3422)">
<stop stop-color="#F9F1A6" offset="0"/>
<stop stop-color="#DCD104" offset="1"/>
</radialGradient>
<linearGradient id="h" x1="18.45%" x2="72.562%" y1="70.371%" y2="70.371%">
<stop stop-color="#DBD4B6" offset="0"/>
<stop stop-color="#FBF6E2" offset="1"/>
</linearGradient>
<path id="c" d="m2.4184 4.6924c5.6305-2.3638 10.976-2.3638 16.036 0 7.5906 3.5456-13.026 6.1188-16.168 4.3907-2.0951-1.152-2.0511-2.6156 0.13199-4.3907z"/>
<radialGradient id="a" cx="62.344%" cy="38.018%" r="103.23%" gradientTransform="translate(.62344 .38018) scale(1 .67742) rotate(91.463) scale(1 .7303) translate(-.62344 -.38018)">
<stop stop-color="#998E7F" offset="0"/>
<stop stop-color="#514D47" offset="1"/>
</radialGradient>
<path id="b" d="m2.2223 2.4046c4.3799-1.8729 8.5381-1.8729 12.475 0 5.9047 2.8093-10.03 4.4772-12.475 3.108-1.6298-0.91279-1.6298-1.9488 0-3.108z"/>
</defs>
<g fill="none" fill-rule="evenodd">
<g transform="translate(-876 -469)">
<g transform="translate(876 466)">
<ellipse cx="40" cy="111" rx="30" ry="8" fill="#142432"/>
<ellipse cx="103.5" cy="125" rx="47.5" ry="8" fill="#142432"/>
<circle cx="45.5" cy="66.071" r="45.5" fill="url(#e)"/>
<circle cx="28.714" cy="83.071" r="16.714" fill="#BF003F"/>
<g transform="translate(44.328 14.813) rotate(-15) translate(-6.5 -13)">
<path transform="translate(6.2924 13.284) rotate(10) translate(-6.2924 -13.284)" d="m5.2925 1.2125h1.9999c1.6569 0 3 1.3431 3 3 0 0.038444-7.389e-4 0.076884-0.0022165 0.1153l-0.70169 18.244c-0.059784 1.5544-1.3372 2.7837-2.8928 2.7837h-0.0076209c-1.5676 0-2.8709-1.2069-2.9912-2.7699l-1.3956-18.143c-0.12707-1.652 1.1091-3.0942 2.7611-3.2213 0.076555-0.0058888 0.15331-0.0088365 0.23009-0.0088365z" fill="#6E6860"/>
<path transform="translate(8.0861 13.282) rotate(10) translate(-8.0861 -13.282)" d="m8.5529 1.6761c1.0813 0.27033 1.8239 1.2633 1.7774 2.3769l-0.76918 18.46c-0.047253 1.1341-0.83566 2.1016-1.9368 2.3769-0.76955 0.19239-1.5494-0.2755-1.7417-1.045-0.032965-0.13186-0.047046-0.26773-0.041823-0.40355l0.78143-20.317c0.033002-0.85804 0.75534-1.5269 1.6134-1.4939 0.10706 0.0041175 0.2134 0.019289 0.31733 0.045273z" fill="#000" fill-opacity=".21"/>
</g>
<g transform="translate(1 6)">
<path d="m20 15c7.3638 0 14.03-2.5 20-7.5-5.9695-5-12.636-7.5-20-7.5s-14.03 1.25-20 3.75c5.9695 7.5 12.636 11.25 20 11.25z" fill="#00FF95"/>
<path d="m20 15c7.3638 0 14.03-2.5 20-7.5l-40-3.75c5.9695 7.5 12.636 11.25 20 11.25z" fill="#0FC27D"/>
</g>
<g transform="translate(45 81)">
<g transform="translate(55 23) rotate(-90) translate(-23 -55)">
<path d="m1.6401 106.32c8.7173-8.7126 11.549-16.865 8.496-24.456-5.9251-14.731-5.8391-21.717 0-36.188 3.1357-7.7709-0.15265-14.809-9.8649-21.114 3.9292-4.8784 9.9517-7.9997 16.703-7.9997 6.3293 0 12.018 2.7431 15.942 7.1054-6.31 6.0622-9.465 12.732-9.465 20.008 0 14.926 8.4375 16.847 0 36.578-4.321 10.105-1.8412 18.72 7.4393 25.844-4.5727 1.9495-9.6056 3.0284-14.891 3.0284-5.0813 0-9.9296-0.99733-14.36-2.8069z" fill="url(#d)"/>
<path d="m30.75 106.48c7.773e-4 -3.35e-4 0.0015546-6.7e-4 0.0023318-0.001005 0.0036884-0.14441 0.0074068-0.29001 0.011156-0.43679l-8.1203-0.35404-6.4204-2.2936-8.5866 2.5555-5.975 0.54662-5.4247e-4 -0.03312c8.4882-8.602 11.223-16.656 8.2039-24.162-5.9251-14.731-5.8391-21.717 0-36.188 3.0998-7.6821-0.078351-14.648-9.5346-20.898l-0.0099067-0.60485c0.0093175-0.01103 0.018646-0.022051 0.027985-0.033063 2.3605 1.6027 4.3339 2.604 5.9203 3.0041 2.3893 0.60247 6.394 0.81678 8.6408 0.54948s2.7272-2.0315 5.5963-2.3348c2.8691-0.30333 3.5382 0.34442 6.1451-0.10726 1.7379-0.30112 3.809-0.97139 6.2135-2.0108-5.7055 5.9597-8.6843 13.311-8.6843 20.435 0 14.926 8.4375 15.847 0 35.578-4.2779 10.004-2.0829 18.74 6.5851 26.209-4.191e-4 0.016465-8.38e-4 0.032922-0.0012567 0.049372-0.00454 0.17836-0.0090357 0.35499-0.013487 0.52989z" fill="url(#h)"/>
<g transform="translate(11.242 .095182)">
<path transform="translate(4.319 10.872) rotate(2) translate(-4.319 -10.872)" d="m3.9226 0.50823h0.81759c1.6569 0 3 1.3431 3 3 0 0.038444-7.3896e-4 0.076884-0.0022165 0.1153l-0.58547 15.222c-0.051326 1.3345-1.1481 2.3898-2.4835 2.3898-1.3495 0-2.4715-1.039-2.575-2.3846l-1.1625-15.113c-0.12707-1.652 1.1091-3.0942 2.7611-3.2213 0.076555-0.0058889 0.15331-0.0088365 0.23009-0.0088365z" fill="#6E6860"/>
<path transform="translate(5.8626 10.87) rotate(2) translate(-5.8626 -10.87)" d="m6.2634 0.90683c0.92835 0.23209 1.5658 1.0846 1.526 2.0407l-0.66037 15.849c-0.040568 0.97364-0.71744 1.8043-1.6628 2.0407-0.66068 0.16517-1.3302-0.23652-1.4953-0.8972-0.028301-0.11321-0.040391-0.22986-0.035906-0.34646l0.67087-17.443c0.028333-0.73665 0.64848-1.3109 1.3851-1.2825 0.09191 0.003535 0.18321 0.01656 0.27244 0.038868z" fill="#000" fill-opacity=".2"/>
</g>
</g>
<g transform="translate(57 19)">
<mask id="g" fill="white">
<use xlink:href="#c"/>
</mask>
<use transform="translate(10.435 6.2771) rotate(14) translate(-10.435 -6.2771)" fill="#000000" fill-opacity=".1" xlink:href="#c"/>
<g mask="url(#g)">
<g transform="translate(7.8221 6.9369) rotate(265) translate(-3.5 -5.5)">
<path d="m3.405 10.053c1.8805 0 3.405-2.2504 3.405-5.0264 0-1.8507-1.135-3.5262-3.405-5.0264-2.27 1.5003-3.405 3.1757-3.405 5.0264 0 2.776 1.5245 5.0264 3.405 5.0264z" fill="url(#a)"/>
<ellipse transform="translate(4.358 3.9222) rotate(-21) translate(-4.358 -3.9222)" cx="4.358" cy="3.9222" rx="1.135" ry="1.6214" fill="#fff" fill-opacity=".23"/>
</g>
</g>
</g>
<g transform="translate(58 28)">
<mask id="f" fill="white">
<use xlink:href="#b"/>
</mask>
<use transform="translate(8.5 3.5) scale(1 -1) rotate(-1) translate(-8.5 -3.5)" fill="#000000" fill-opacity=".14" xlink:href="#b"/>
<g fill="url(#a)" mask="url(#f)">
<g transform="translate(5.5 3) rotate(-79) translate(-2.5 -4)">
<path d="m2.405 7.1005c1.3282 0 2.405-1.5895 2.405-3.5502 0-1.3072-0.80167-2.4906-2.405-3.5502-1.6033 1.0597-2.405 2.2431-2.405 3.5502 0 1.9607 1.0768 3.5502 2.405 3.5502z"/>
</g>
</g>
</g>
</g>
</g>
</g>
</g>
</svg>
