<?xml version="1.0" encoding="UTF-8"?>
<svg version="1.1" viewBox="0 0 116 219" xmlns="http://www.w3.org/2000/svg">
<defs>
<linearGradient id="b" x1="50%" x2="50%" y1="97.345%" y2="2.543%">
<stop stop-color="#798EA3" offset="0"/>
<stop stop-color="#798EA3" stop-opacity="0" offset="1"/>
</linearGradient>
<linearGradient id="a" x1="100.67%" x2="100.67%" y1=".34313%" y2="151.08%">
<stop stop-color="#511CFC" offset="0"/>
<stop stop-color="#34DCDD" offset="1"/>
</linearGradient>
</defs>
<g fill="none" fill-rule="evenodd">
<g transform="translate(-583 -4868)">
<g transform="translate(446 196)">
<g transform="translate(102 4530)">
<g transform="translate(35 142)">
<rect x="48.409" y="105.04" width="20.094" height="113.26" rx="10.047" fill="url(#b)" opacity=".54699"/>
<path d="m1.5348 169.4c0.40122 0.58074 0.80358 0.94744 2.1861 1.4038 3.7207 1.2283 31.503 3.1364 54.638 3.1277 21.166-0.007986 47.366-2.3325 51.543-3.1277 2.2756-0.43317 2.7591-0.92119 3.2567-1.4038 3.6512-3.5412 13.005-169.4-53.932-169.4-66.937 0-59.821 166.32-57.692 169.4z" fill="url(#a)"/>
<rect x="38.362" y="41.102" width="10.961" height="104.13" rx="5.4803" fill="#fff" opacity=".13632"/>
<rect x="67.591" y="41.102" width="10.961" height="104.13" rx="5.4803" fill="#fff" opacity=".13632"/>
<path d="m26.684 73.25c12.313 0 11.516 10.182 21.882 10.182 10.302 0 6.8439-12.488 21.087-20.372 14.243-7.884 13.248 5.7348 28.529 0 7.0107-2.631 10.899-8.5078 8.1597-15.649-10.094-26.319-22.505-47.411-45.981-47.411-33.324 0-50.973 41.469-57.449 83.432-0.37795 2.4491-0.43459 3.0472 0.6507 4.6702 1.2251 1.8321 10.807-14.853 23.12-14.853z" fill="#6A63FC"/>
</g>
</g>
</g>
</g>
</g>
</svg>
