<?xml version="1.0" encoding="UTF-8"?>
<svg version="1.1" viewBox="0 0 127 214" xmlns="http://www.w3.org/2000/svg">
<defs>
<linearGradient id="b" x1="50%" x2="50%" y1="97.345%" y2="2.543%">
<stop stop-color="#798EA3" offset="0"/>
<stop stop-color="#798EA3" stop-opacity="0" offset="1"/>
</linearGradient>
<linearGradient id="a" x1="55.13%" x2="55.13%" y1="138.61%" y2="-2.7862%">
<stop stop-color="#00A5FF" offset="0"/>
<stop stop-color="#34DCDD" offset="1"/>
</linearGradient>
</defs>
<g fill="none" fill-rule="evenodd">
<g transform="translate(-1011 -4872)">
<g transform="translate(446 196)">
<g transform="translate(102 4530)">
<g transform="translate(453 115)">
<g transform="translate(75.941 138.41) rotate(10) translate(-57 -108.5)">
<rect x="47.952" y="104.05" width="19.905" height="112.19" rx="9.9524" fill="url(#b)" opacity=".54699"/>
<g fill="url(#a)">
<path d="m1.5203 167.8c0.42984 0.85963 1.1406 1.3069 1.5418 1.5405 1.9088 1.1114 29.426 3.2369 54.35 3.2211 23.34-0.01479 45.365-1.6701 51.787-2.8024 1.5464-0.27268 2.3075-0.76861 2.892-1.9592 1.1282-2.2983 12.882-167.8-53.423-167.8-66.305 0-59.017 164.06-57.147 167.8z"/>
</g>
<rect x="38" y="40.714" width="10.857" height="103.14" rx="5.4286" fill="#fff" opacity=".13632"/>
<rect x="66.952" y="40.714" width="10.857" height="103.14" rx="5.4286" fill="#fff" opacity=".13632"/>
<path d="m26.432 72.558c12.197 0 11.407 10.086 21.676 10.086 10.205 0 6.7793-12.37 20.888-20.18 14.109-7.8095 9.9311 3.2576 26.208 0.3875 3.1049-0.54748 8.6116-1.8223 11.525-3.26 3.7609-1.8559 1.7301-6.3021 0.10149-9.4917-0.93717-1.8354-2.4982-5.7329-3.0111-7.0095-9.7375-24.237-21.937-43.091-44.028-43.091-33.009 0-50.491 41.077-56.906 82.645-0.37438 2.426-0.43049 3.0184 0.64455 4.6261 1.2136 1.8148 10.705-14.712 22.902-14.712z" fill="#34DCDD"/>
</g>
</g>
</g>
</g>
</g>
</g>
</svg>
