<?xml version="1.0" encoding="UTF-8"?>
<svg version="1.1" viewBox="0 0 89 44" xmlns="http://www.w3.org/2000/svg">
<defs>
<radialGradient id="a" cx="62.344%" cy="38.018%" r="103.23%" gradientTransform="translate(.62344 .38018) scale(1 .67742) rotate(91.463) scale(1 .7303) translate(-.62344 -.38018)">
<stop stop-color="#998E7F" offset="0"/>
<stop stop-color="#514D47" offset="1"/>
</radialGradient>
</defs>
<g fill="none" fill-rule="evenodd">
<g transform="translate(-917 -544)">
<g transform="translate(915 541)">
<ellipse cx="73.662" cy="44.032" rx="12.714" ry="2.8896" fill="#142432"/>
<ellipse cx="23.695" cy="32.942" rx="21.383" ry="2.8896" fill="#142432"/>
<g transform="translate(39.427 18.009) rotate(-10) translate(-9.8247 -15.026)">
<path d="m9.8247 29.006c5.426 0 9.8247-6.4933 9.8247-14.503 0-5.3399-3.2749-10.174-9.8247-14.503-6.5498 4.3288-9.8247 9.1632-9.8247 14.503 0 8.0098 4.3987 14.503 9.8247 14.503z" fill="url(#a)"/>
<ellipse transform="translate(12.574 11.317) rotate(-21) translate(-12.574 -11.317)" cx="12.574" cy="11.317" rx="3.2749" ry="4.6784" fill="#fff" fill-opacity=".23"/>
</g>
<g transform="translate(74.876 33.712) rotate(-90) translate(-10.403 -15.356)">
<path d="m10.403 30.712c5.7452 0 10.403-6.8752 10.403-15.356 0-5.654-3.4675-10.773-10.403-15.356-6.9351 4.5835-10.403 9.7022-10.403 15.356 0 8.481 4.6574 15.356 10.403 15.356z" fill="url(#a)"/>
<ellipse transform="translate(13.314 11.983) rotate(-21) translate(-13.314 -11.983)" cx="13.314" cy="11.983" rx="3.4675" ry="4.9536" fill="#fff" fill-opacity=".23"/>
</g>
<g transform="translate(17.923 18.966) scale(-1 1) rotate(-40) translate(-10.403 -15.356)">
<path d="m10.403 30.712c5.7452 0 10.403-6.8752 10.403-15.356 0-5.654-3.4675-10.773-10.403-15.356-6.9351 4.5835-10.403 9.7022-10.403 15.356 0 8.481 4.6574 15.356 10.403 15.356z" fill="url(#a)"/>
<ellipse transform="translate(13.314 11.983) rotate(-21) translate(-13.314 -11.983)" cx="13.314" cy="11.983" rx="3.4675" ry="4.9536" fill="#fff" fill-opacity=".23"/>
</g>
</g>
</g>
</g>
</svg>
