<?xml version="1.0" encoding="UTF-8"?>
<svg version="1.1" viewBox="0 0 172 141" xmlns="http://www.w3.org/2000/svg">
<defs>
<linearGradient id="g" x1="50%" x2="50%" y1="2.8615%" y2="98.005%">
<stop stop-color="#37506B" offset="0"/>
<stop stop-color="#798EA3" offset="1"/>
</linearGradient>
<radialGradient id="c" cx="38.059%" cy="74.312%" r="66.43%" gradientTransform="translate(.38059 .74312) scale(.81813 1) rotate(-90) scale(1 1.0171) translate(-.38059 -.74312)">
<stop stop-color="#92A6BA" offset="0"/>
<stop stop-color="#37506B" offset="1"/>
</radialGradient>
<linearGradient id="b" x1="12.578%" x2="-12.115%" y1="192.58%" y2="-14.323%">
<stop stop-color="#00A5FF" offset="0"/>
<stop stop-color="#34DCDD" stop-opacity=".6" offset="1"/>
</linearGradient>
<linearGradient id="f" x1="12.578%" x2="-12.115%" y1="192.58%" y2="-14.323%">
<stop stop-color="#00A5FF" offset="0"/>
<stop stop-color="#34DCDD" stop-opacity=".8" offset="1"/>
</linearGradient>
<linearGradient id="e" x1="12.578%" x2="-12.115%" y1="192.58%" y2="-14.323%">
<stop stop-color="#00A5FF" offset="0"/>
<stop stop-color="#34DCDD" stop-opacity=".8" offset=".97026"/>
</linearGradient>
<linearGradient id="d" x1="12.578%" x2="-11.204%" y1="192.58%" y2="-6.6917%">
<stop stop-color="#00A5FF" offset="0"/>
<stop stop-color="#34DCDD" stop-opacity=".88" offset=".98553"/>
</linearGradient>
<radialGradient id="a" cy="51.161%" r="58.059%" gradientTransform="translate(.5 .51161) rotate(99.623) scale(1 .43186) translate(-.5 -.51161)">
<stop stop-color="#fff" stop-opacity=".39" offset="0"/>
<stop stop-color="#fff" stop-opacity="0" offset="1"/>
</radialGradient>
</defs>
<g fill="none" fill-rule="evenodd">
<g transform="translate(-18 -22)">
<g transform="translate(19 22)">
<ellipse cx="91" cy="132" rx="61" ry="9" fill="#000729" fill-opacity=".23"/>
<path d="m114.72 126.29c2.1091 0 3.8188 1.7097 3.8188 3.8188s-1.7097 3.8188-3.8188 3.8188h-61.192c-2.1091 0-3.8188-1.7097-3.8188-3.8188s1.7097-3.8188 3.8188-3.8188h-1.4454c10.021-4.1133 15.032-10.648 15.032-19.606 0-8.9572-2.3734-17.98-7.1203-27.069h47.469c-5.2743 11.651-7.9115 20.635-7.9115 26.95s5.2743 12.89 15.823 19.724h-0.65421z" fill="url(#g)" opacity=".02"/>
<path d="m116.01 126.67c2.1091 0 3.8188 1.7097 3.8188 3.8188 0 2.1866-1.6503 4.0205-3.8247 4.2504-9.8882 1.0456-19.965 1.5684-30.23 1.5684-10.317 0-20.635-0.52815-30.952-1.5844l2.4e-6 -2.4e-5c-2.1716-0.22232-3.823-2.0514-3.823-4.2343 0-2.1091 1.7097-3.8188 3.8188-3.8188h-1.4454c10.021-4.1133 15.032-10.648 15.032-19.606s-2.3734-17.98-7.1203-27.069h47.469c-5.2743 11.651-7.9115 20.635-7.9115 26.95s5.2743 12.89 15.823 19.724h-0.65421z" fill="url(#c)" opacity=".48448"/>
<g transform="translate(0 80.771)">
<path d="m0.4832 6.0903c-0.31939-0.19382-0.4832-0.39065-0.4832-0.58995 0-3.0378 38.056-5.5003 85-5.5003 46.944 0 85 2.4626 85 5.5003 0 0.24936-0.25642 0.49484-0.75314 0.7354l0.25684-0.01796-11.515 14.196-11.91-11.088c-0.13526 0.009042-0.271 0.018054-0.40721 0.027036l-9.1695 12.599-13.754-11.522c-0.11661 0.0037463-0.23337 0.0074758-0.35028 0.011188l-11.431 13.128-12.656-12.635c-0.24374 0.0024806-0.48782 0.0048941-0.73224 0.0072403l-12.579 13.467-12.559-13.446-12.628 12.607-11.409-13.103c-0.20213-0.0062488-0.40383-0.012548-0.60508-0.018897l-12.393 11.538-10.201-12.576c-0.38266-0.024511-0.76175-0.049256-1.1372-0.07423l-13.185 11.045-10.4-14.29z" fill="#fff" stroke="#fff" stroke-linecap="round" stroke-linejoin="round"/>
<polygon transform="translate(11.697 11.786) rotate(186) translate(-11.697 -11.786)" points="11.697 8.6434 17.156 14.929 6.2385 14.929" fill="#B2C4D7"/>
<polygon transform="translate(35.872 13.358) rotate(183) translate(-35.872 -13.358)" points="35.872 10.215 41.33 16.501 30.413 16.501" fill="#B2C4D7"/>
<polygon transform="translate(60.046 14.144) rotate(181) translate(-60.046 -14.144)" points="60.046 11.001 65.505 17.287 54.587 17.287" fill="#B2C4D7"/>
<polygon transform="translate(110.73 14.144) scale(-1 1) rotate(182) translate(-110.73 -14.144)" points="110.73 11.001 116.19 17.287 105.28 17.287" fill="#B2C4D7"/>
<polygon transform="translate(134.91 13.358) scale(-1 1) rotate(183) translate(-134.91 -13.358)" points="134.91 10.215 140.37 16.501 129.45 16.501" fill="#B2C4D7"/>
<polygon transform="translate(157.52 12.572) scale(-1 1) rotate(183) translate(-157.52 -12.572)" points="157.52 9.4292 162.98 15.715 152.06 15.715" fill="#B2C4D7"/>
<polygon points="85 18.185 78.761 11.001 91.239 11.001" fill="#B2C4D7"/>
</g>
<g transform="translate(18.459)">
<path transform="translate(35.548 42.016) scale(-1 1) translate(-35.548 -42.016)" d="m21.193 0.64486c8.2171 0.95364 15.216 6.4105 18.146 14.147l22.41 59.189c1.3689 3.6155-0.45231 7.6562-4.0678 9.0251-0.79198 0.29986-1.6318 0.45353-2.4786 0.45353h-33.929c-3.6411 0-6.6742-2.7914-6.9759-6.4199l-5.3655-64.527c-0.50469-6.0695 4.0065-11.399 10.076-11.904 0.72775-0.060514 1.4597-0.04859 2.1851 0.035595z" fill="url(#b)" opacity=".7"/>
<path d="m85.295 0.64486c8.2171 0.95364 15.216 6.4105 18.146 14.147l22.41 59.189c1.3689 3.6155-0.45231 7.6562-4.0678 9.0251-0.79198 0.29986-1.6318 0.45353-2.4786 0.45353h-33.929c-3.6411 0-6.6742-2.7914-6.9759-6.4199l-5.3655-64.527c-0.50469-6.0695 4.0065-11.399 10.076-11.904 0.72775-0.060514 1.4597-0.04859 2.1851 0.035595z" fill="url(#f)" opacity=".7"/>
<path d="m97.175 1.3421c8.1792 0.94924 15.094 6.4956 17.795 14.274l20.575 59.244c1.2683 3.652-0.66404 7.6407-4.3161 8.9091-0.7385 0.25648-1.5147 0.38743-2.2965 0.38743h-31.677c-3.6411 0-6.6742-2.7914-6.9759-6.4199l-5.3655-64.527c-0.50469-6.0695 4.0065-11.399 10.076-11.904 0.72775-0.060514 1.4597-0.04859 2.1851 0.035595z" fill="url(#b)" opacity=".8"/>
<path transform="translate(25.642 42.713) scale(-1 1) translate(-25.642 -42.713)" d="m12.412 1.3421c8.1792 0.94924 15.094 6.4956 17.795 14.274l20.575 59.244c1.2683 3.652-0.66404 7.6407-4.3161 8.9091-0.7385 0.25648-1.5147 0.38743-2.2965 0.38743h-31.677c-3.6411 0-6.6742-2.7914-6.9759-6.4199l-5.3655-64.527c-0.50469-6.0695 4.0065-11.399 10.076-11.904 0.72775-0.060514 1.4597-0.04859 2.1851 0.035595z" fill="url(#e)" opacity=".79975"/>
<path d="m67.836 0.78964c8.7783 0 16.165 6.5742 17.184 15.293l7.1568 61.262c0.44859 3.8399-2.3006 7.3164-6.1405 7.765-0.2696 0.031496-0.5408 0.047283-0.81224 0.047283h-34.776c-3.866 0-7-3.134-7-7 0-0.27143 0.015788-0.54264 0.047283-0.81224l7.1568-61.262c1.0186-8.719 8.4055-15.293 17.184-15.293z" fill="url(#d)"/>
</g>
<circle cx="73.468" cy="41.431" r="35.642" fill="url(#a)" opacity=".73828"/>
<circle transform="translate(123.78 43.369) rotate(-30) translate(-123.78 -43.369)" cx="123.78" cy="43.369" r="30.975" fill="url(#a)" opacity=".55673"/>
</g>
</g>
</g>
</svg>
