<?xml version="1.0" encoding="UTF-8"?>
<svg version="1.1" viewBox="0 0 204 134" xmlns="http://www.w3.org/2000/svg">
<defs>
<linearGradient id="a" x1="9.0735%" x2="101.5%" y1="92.842%" y2="-.5%">
<stop stop-color="#5941F4" offset="0"/>
<stop stop-color="#766FFF" offset="1"/>
</linearGradient>
<linearGradient id="b" x1="50%" x2="50%" y1="2.4474%" y2="100%">
<stop stop-color="#5AC5FF" offset="0"/>
<stop stop-color="#50E3C2" offset="1"/>
</linearGradient>
</defs>
<g fill="none" fill-rule="evenodd" stroke-linecap="round">
<g transform="translate(-5 -9)" stroke-width="18">
<g transform="translate(14 18)">
<path transform="translate(128.14 94.104) rotate(60) translate(-128.14 -94.104)" d="m132.54 125.32l-8.8105-62.424" stroke="url(#a)"/>
<path d="m60.256 114.16l-44.116-113.84" stroke="url(#a)"/>
<path d="m41.827 24.414c-28.996 4.8445-42.568 16.623-40.717 35.335 2.7762 28.069 28.306 24.441 34.319 53.342" stroke="url(#b)"/>
<path d="m87.525 112.17c10.631-13.633 19.451-24.694 26.461-33.184 10.318-12.496 20.243-3.8941 32.988 3.1917 20.65 11.48 32.267-5.8848 39.064-13.766" stroke="url(#b)"/>
<path transform="translate(86.197 80.381) rotate(30) translate(-86.197 -80.381)" d="m98.168 113.54l-23.943-66.32" stroke="url(#a)"/>
</g>
</g>
</g>
</svg>
