<svg id="Ebene_1" data-name="Ebene 1" xmlns="http://www.w3.org/2000/svg" viewBox="0 0 385 213.21"><defs><style>.cls-1{fill:#cfecf4;}.cls-2{fill:#e83838;}.cls-3{fill:#db3a3a;}.cls-4{fill:#fff;}</style></defs><title>Abmahnung</title><rect class="cls-1" x="53.31" y="67.46" width="107.42" height="11.22" rx="3.5" ry="3.5"/><rect class="cls-1" x="43.49" y="88.74" width="117.04" height="11.22" rx="3.5" ry="3.5"/><rect class="cls-1" x="47.7" y="131.29" width="158.73" height="11.22" rx="3.5" ry="3.5"/><rect class="cls-1" y="110.01" width="158.73" height="11.22" rx="3.5" ry="3.5"/><path class="cls-1" d="M152,83.71a5.63,5.63,0,0,1,5.62-5.61h-77a5.61,5.61,0,0,1,0,11.22h77A5.63,5.63,0,0,1,152,83.71Z"/><path class="cls-1" d="M136.58,105a5.63,5.63,0,0,1,5.61-5.61H65.24a5.61,5.61,0,0,1,0,11.22h77A5.63,5.63,0,0,1,136.58,105Z"/><path class="cls-1" d="M143.6,126.26a5.63,5.63,0,0,1,5.61-5.61h-77a5.62,5.62,0,0,1,0,11.23h77A5.63,5.63,0,0,1,143.6,126.26Z"/><path class="cls-1" d="M316.47,105A5.57,5.57,0,0,1,322,99.43H245.78a5.56,5.56,0,1,1,0,11.12H322A5.57,5.57,0,0,1,316.47,105Z"/><rect class="cls-1" x="239.39" y="67.46" width="106.43" height="11.12" rx="3.5" ry="3.5"/><rect class="cls-1" x="209.41" y="88.77" width="157.26" height="11.12" rx="3" ry="3"/><rect class="cls-1" x="221.46" y="110.08" width="137.6" height="11.12" rx="3.5" ry="3.5"/><rect class="cls-1" x="247.4" y="131.4" width="137.6" height="11.12" rx="3.5" ry="3.5"/><path class="cls-1" d="M335,126.3a5.58,5.58,0,0,1,5.56-5.56H264.32a5.56,5.56,0,0,1,0,11.12h76.24A5.58,5.58,0,0,1,335,126.3Z"/><path class="cls-1" d="M327.34,83.68a5.58,5.58,0,0,1,5.56-5.56H256.66a5.56,5.56,0,1,1,0,11.12H332.9A5.59,5.59,0,0,1,327.34,83.68Z"/><polygon class="cls-2" points="238.47 5.84 154.99 5.84 95.96 64.87 95.96 148.34 154.99 207.37 238.47 207.37 297.49 148.34 297.49 64.87 238.47 5.84"/><polygon class="cls-3" points="266.01 38.49 143.82 195.24 155.02 204.24 241.18 202.78 294.48 148.02 294.48 64.78 266.01 38.49"/><path class="cls-3" d="M53.26,152.42c-8,12.11-7.69,11.7-7.69,11.7"/><path class="cls-3" d="M45,165a1,1,0,0,1-.29-1.38h0l7.7-11.7a1,1,0,0,1,1.38-.28A1,1,0,0,1,54.1,153l-7.7,11.7A1,1,0,0,1,45,165Z"/><path class="cls-3" d="M55.26,162.12l-11.69-7.7"/><path class="cls-3" d="M54.71,163,43,155.26a1,1,0,0,1-.29-1.39,1,1,0,0,1,1.39-.28l11.69,7.69a1,1,0,0,1,.29,1.39A1,1,0,0,1,54.71,163Z"/><path class="cls-3" d="M76.37,95.93l-8.8-.25"/><path class="cls-3" d="M66.94,95.66a.63.63,0,0,1,.64-.61h0l8.8.25a.63.63,0,0,1,0,1.26l-8.8-.25A.63.63,0,0,1,66.94,95.66Z"/><path class="cls-3" d="M71.84,100.2c.26-9.11.25-8.79.25-8.79"/><path class="cls-3" d="M71.21,100.19l.25-8.8a.63.63,0,0,1,1.26,0l-.25,8.8a.63.63,0,0,1-1.26,0Z"/><path class="cls-3" d="M27.2,75.85a6.75,6.75,0,1,1,4.27-8.55A6.76,6.76,0,0,1,27.2,75.85ZM23.45,64.64a5.07,5.07,0,1,0,6.41,3.2A5.08,5.08,0,0,0,23.45,64.64Z"/><path class="cls-3" d="M330.88,111.36c-8,12.11-7.69,11.7-7.69,11.7"/><path class="cls-3" d="M322.64,123.89a1,1,0,0,1-.29-1.38h0l7.7-11.7a1,1,0,0,1,1.38-.28,1,1,0,0,1,.29,1.38l-7.7,11.7A1,1,0,0,1,322.64,123.89Z"/><path class="cls-3" d="M332.88,121.06l-11.69-7.7"/><path class="cls-3" d="M332.33,121.89l-11.69-7.69a1,1,0,0,1-.29-1.39,1,1,0,0,1,1.39-.28l11.69,7.69a1,1,0,0,1,.29,1.39A1,1,0,0,1,332.33,121.89Z"/><path class="cls-3" d="M369.51,62l-8.8-.25"/><path class="cls-3" d="M360.08,61.75a.63.63,0,0,1,.64-.61h0l8.8.25a.63.63,0,1,1,0,1.25l-8.8-.24A.63.63,0,0,1,360.08,61.75Z"/><path class="cls-3" d="M365,66.29c.26-9.11.25-8.8.25-8.8"/><path class="cls-3" d="M364.35,66.27l.25-8.79a.63.63,0,1,1,1.26,0l-.25,8.8a.63.63,0,0,1-.65.61A.63.63,0,0,1,364.35,66.27Z"/><path class="cls-3" d="M342.37,177.93a8.72,8.72,0,1,1,5.5-11A8.73,8.73,0,0,1,342.37,177.93Zm-4.84-14.47a6.54,6.54,0,1,0,8.27,4.12A6.54,6.54,0,0,0,337.53,163.46Z"/><path class="cls-3" d="M321.9,52.31a5.71,5.71,0,1,1,3.61-7.22A5.71,5.71,0,0,1,321.9,52.31Zm-3.16-9.47a4.28,4.28,0,1,0,5.41,2.7A4.28,4.28,0,0,0,318.74,42.84Z"/><path class="cls-4" d="M235.85,12.16l55.33,55.32v78.25l-55.33,55.32H157.6l-55.32-55.32V67.48L157.6,12.16h78.25m3.63-8.77H154L93.52,63.85v85.51L154,209.82h85.5l60.46-60.46V63.85L239.48,3.39Z"/><path d="M256.23,22.35a2.54,2.54,0,0,1-1.81-.75L237.93,5.11H153.85l-4.61,4.61a2.56,2.56,0,0,1-3.61-3.62L151,.75A2.56,2.56,0,0,1,152.79,0H239a2.54,2.54,0,0,1,1.8.75L258,18a2.56,2.56,0,0,1-1.8,4.36Z"/><path d="M299.94,133.05a2.56,2.56,0,0,1-2.56-2.56V64.57L263.67,30.85a2.55,2.55,0,0,1,3.61-3.61L301.75,61.7a2.59,2.59,0,0,1,.74,1.81v67A2.56,2.56,0,0,1,299.94,133.05Z"/><path d="M258.81,193.39A2.56,2.56,0,0,1,257,189l35.68-35.68a2.56,2.56,0,0,1,3.61,3.62l-35.68,35.67A2.52,2.52,0,0,1,258.81,193.39Z"/><path d="M239,213.21h-86.2a2.56,2.56,0,0,1-1.81-.75L90,151.51a2.56,2.56,0,0,1-.75-1.81V106.59a2.56,2.56,0,0,1,5.11,0v42.06l59.46,59.45h84.08l6.6-6.6a2.56,2.56,0,0,1,3.61,3.62l-7.35,7.34A2.54,2.54,0,0,1,239,213.21Z"/><path d="M91.84,78.77a2.56,2.56,0,0,1-2.56-2.55V63.51A2.56,2.56,0,0,1,90,61.7L133,18.76a2.56,2.56,0,0,1,3.62,3.61l-42.2,42.2V76.22A2.55,2.55,0,0,1,91.84,78.77Z"/><path class="cls-4" d="M120,113.88l8.2-.8a10,10,0,0,0,3,6.06,9.1,9.1,0,0,0,6.11,1.94c2.71,0,4.76-.58,6.13-1.72a5.11,5.11,0,0,0,2.06-4,3.83,3.83,0,0,0-.86-2.52,7,7,0,0,0-3-1.81q-1.49-.51-6.75-1.82c-4.52-1.12-7.68-2.49-9.51-4.13a10.84,10.84,0,0,1-3.84-8.39,10.67,10.67,0,0,1,1.81-6,11.3,11.3,0,0,1,5.21-4.23A20.79,20.79,0,0,1,136.74,85q7.86,0,11.82,3.44a12.14,12.14,0,0,1,4.17,9.19l-8.42.37A7.18,7.18,0,0,0,142,93.4,8.51,8.51,0,0,0,136.65,92a9.62,9.62,0,0,0-5.75,1.51,3,3,0,0,0-1.33,2.59,3.17,3.17,0,0,0,1.25,2.53q1.59,1.34,7.74,2.79a41.07,41.07,0,0,1,9.09,3,11.74,11.74,0,0,1,4.61,4.24,13.14,13.14,0,0,1-.32,13.37,12,12,0,0,1-5.64,4.65,23.53,23.53,0,0,1-9.08,1.52q-7.91,0-12.15-3.65T120,113.88Z"/><path class="cls-4" d="M170.06,127.45V92.79H157.68V85.73h33.15v7.06H178.48v34.66Z"/><path class="cls-4" d="M193.16,106.85a26.54,26.54,0,0,1,1.91-10.7A19.49,19.49,0,0,1,199,90.43a16.17,16.17,0,0,1,5.39-3.76,22.94,22.94,0,0,1,9-1.65q9.22,0,14.76,5.72t5.53,15.91q0,10.09-5.49,15.81t-14.69,5.7q-9.3,0-14.8-5.67T193.16,106.85Zm8.68-.29q0,7.09,3.27,10.75a10.71,10.71,0,0,0,8.31,3.65,10.59,10.59,0,0,0,8.27-3.62q3.23-3.63,3.23-10.89t-3.14-10.7a11.65,11.65,0,0,0-16.75,0Q201.84,99.36,201.84,106.56Z"/><path class="cls-4" d="M241.49,127.45V85.73H255q7.68,0,10,.63a10.86,10.86,0,0,1,6,4.08,13,13,0,0,1,2.42,8.13,13.62,13.62,0,0,1-1.4,6.46,11.43,11.43,0,0,1-3.54,4.11,12.44,12.44,0,0,1-4.37,2,48.94,48.94,0,0,1-8.73.59h-5.5v15.74Zm8.42-34.66v11.84h4.61q5,0,6.66-.66a5.53,5.53,0,0,0,2.64-2,5.64,5.64,0,0,0,.95-3.24,5.41,5.41,0,0,0-1.34-3.76A5.87,5.87,0,0,0,260,93.07a40.54,40.54,0,0,0-6.06-.28Z"/></svg>