<svg id="Ebene_1" data-name="Ebene 1" xmlns="http://www.w3.org/2000/svg" viewBox="0 0 281 164.02"><defs><style>.cls-1{fill:#fbed21;}.cls-2{fill:#c9ecfd;}.cls-3{fill:#333;}.cls-4{fill:#ffdf00;}</style></defs><title>Abmahnung</title><path class="cls-1" d="M91.86,32.78a1,1,0,0,1-1-1h0V18.15a1,1,0,1,1,2,0V31.81A1,1,0,0,1,91.86,32.78Z"/><path class="cls-1" d="M98.69,26H85A1,1,0,1,1,85,24H98.69a1,1,0,1,1,0,1.95Z"/><path class="cls-1" d="M27.17,58.9,19.66,70.31"/><path class="cls-1" d="M19.12,71.12a1,1,0,0,1-.28-1.34h0l7.51-11.41a1,1,0,0,1,1.36-.28A1,1,0,0,1,28,59.43L20.47,70.85A1,1,0,0,1,19.12,71.12Z"/><path class="cls-1" d="M29.12,68.36,17.71,60.85"/><path class="cls-1" d="M28.58,69.17,17.17,61.66A1,1,0,1,1,18.24,60l11.42,7.51a1,1,0,1,1-1.08,1.63Z"/><path class="cls-1" d="M39.72,124.76l-8.59-.24"/><path class="cls-1" d="M30.52,124.51a.61.61,0,0,1,.62-.6h0l8.58.24a.62.62,0,1,1,0,1.23l-8.59-.24A.61.61,0,0,1,30.52,124.51Z"/><path class="cls-1" d="M35.3,128.94c.25-8.9.24-8.59.24-8.59"/><path class="cls-1" d="M34.69,128.92l.24-8.59a.61.61,0,0,1,.63-.59.61.61,0,0,1,.6.63L35.91,129a.61.61,0,1,1-1.22,0Z"/><path class="cls-2" d="M221.79,77.81A4.82,4.82,0,0,1,226.6,73H160.72a4.8,4.8,0,1,1,0,9.6H226.6A4.82,4.82,0,0,1,221.79,77.81Z"/><rect class="cls-2" x="45.63" y="48.39" width="91.95" height="9.61" rx="3.5" ry="3.5"/><rect class="cls-2" x="37.22" y="66.6" width="100.18" height="9.61" rx="3.5" ry="3.5"/><rect class="cls-2" x="40.83" y="103.03" width="135.86" height="9.61" rx="3.5" ry="3.5"/><rect class="cls-2" y="84.82" width="135.86" height="9.61" rx="3.5" ry="3.5"/><path class="cls-2" d="M130.12,62.3a4.81,4.81,0,0,1,4.8-4.8H69.05a4.8,4.8,0,0,1,0,9.6h65.87A4.81,4.81,0,0,1,130.12,62.3Z"/><path class="cls-2" d="M116.91,80.51a4.81,4.81,0,0,1,4.8-4.8H55.84a4.81,4.81,0,0,1,0,9.61h65.87A4.82,4.82,0,0,1,116.91,80.51Z"/><path class="cls-2" d="M122.91,98.72a4.81,4.81,0,0,1,4.8-4.8H61.84a4.81,4.81,0,0,1,0,9.61h65.87A4.82,4.82,0,0,1,122.91,98.72Z"/><rect class="cls-2" x="146.51" y="45.39" width="91.95" height="9.61" rx="3.5" ry="3.5"/><rect class="cls-2" x="129.3" y="63.8" width="135.86" height="9.61" rx="3" ry="3"/><rect class="cls-2" x="139.71" y="82.21" width="118.88" height="9.61" rx="3.5" ry="3.5"/><rect class="cls-2" x="162.12" y="100.63" width="118.88" height="9.61" rx="3.5" ry="3.5"/><path class="cls-2" d="M237.81,96.22a4.81,4.81,0,0,1,4.8-4.8H176.74a4.81,4.81,0,0,1,0,9.61h65.87A4.82,4.82,0,0,1,237.81,96.22Z"/><path class="cls-2" d="M211.19,59.4a4.81,4.81,0,0,1,4.8-4.8H150.12a4.8,4.8,0,0,1,0,9.6H216A4.81,4.81,0,0,1,211.19,59.4Z"/><path class="cls-1" d="M215.52,31l-4.72,7.17"/><path class="cls-1" d="M210.46,38.68a.61.61,0,0,1-.18-.84h0L215,30.66a.62.62,0,0,1,.85-.18.61.61,0,0,1,.17.85l-4.72,7.18A.61.61,0,0,1,210.46,38.68Z"/><path class="cls-1" d="M216.74,36.94l-7.17-4.72"/><path class="cls-1" d="M216.41,37.46l-7.18-4.73a.61.61,0,0,1,.68-1l7.17,4.72a.62.62,0,0,1,.18.85A.62.62,0,0,1,216.41,37.46Z"/><path class="cls-1" d="M247.73,122.54,253,134"/><path class="cls-1" d="M253.41,134.77a.9.9,0,0,1-1.19-.44h0l-5.3-11.41a.9.9,0,1,1,1.63-.76l5.3,11.41A.91.91,0,0,1,253.41,134.77Z"/><path class="cls-1" d="M256.09,125.59l-11.41,5.31"/><path class="cls-1" d="M256.47,126.41l-11.42,5.3a.89.89,0,0,1-1.19-.43.91.91,0,0,1,.44-1.2l11.41-5.3a.9.9,0,0,1,.76,1.63Z"/><path class="cls-1" d="M145,161.52H62.38a8,8,0,0,1-6.91-12L96.76,78l41.3-71.53a8,8,0,0,1,13.82,0L193.18,78l41.3,71.53a8,8,0,0,1-6.91,12Z"/><path class="cls-3" d="M153.07,131.16a7.6,7.6,0,0,1-2.4,5.65,8.14,8.14,0,0,1-11.4,0,7.59,7.59,0,0,1-2.39-5.65,8.1,8.1,0,0,1,16.19,0Zm-.54-71.26q0,3-1.94,19.85t-3.43,32.68h-4.61q-1.31-15.78-3.22-32.68T137.41,59.9a8,8,0,0,1,2.13-5.67A7,7,0,0,1,145,51.92a7.11,7.11,0,0,1,5.44,2.28A8,8,0,0,1,152.53,59.9Z"/><polygon class="cls-4" points="144.97 4.5 223.49 161.52 234.99 156.9 232.74 146.65 216.94 119.17 150.24 5.4 144.97 4.5"/><path class="cls-3" d="M80.1,109.38a2.5,2.5,0,0,1-2.16-3.75l7.52-13a2.5,2.5,0,1,1,4.33,2.5l-7.52,13A2.5,2.5,0,0,1,80.1,109.38Z"/><path class="cls-3" d="M71,164H62.38A10.48,10.48,0,0,1,53.3,148.3l16.1-27.88a2.5,2.5,0,1,1,4.33,2.5L57.63,150.8A5.48,5.48,0,0,0,62.38,159H71a2.5,2.5,0,0,1,0,5Z"/><path class="cls-3" d="M175.31,164H88.64a2.5,2.5,0,0,1,0-5h86.67a2.5,2.5,0,0,1,0,5Z"/><path class="cls-3" d="M227.57,164H189.64a2.5,2.5,0,0,1,0-5h37.93a5.49,5.49,0,0,0,5.26-3.92A5.3,5.3,0,0,0,233,153a5.41,5.41,0,0,0-.72-2.17,2.5,2.5,0,1,1,4.33-2.5,10.37,10.37,0,0,1,1.36,4.15,10.18,10.18,0,0,1-.39,4.1A10.44,10.44,0,0,1,227.57,164Z"/><path class="cls-3" d="M224,133.87a2.5,2.5,0,0,1-2.17-1.25L149.72,7.74a5.48,5.48,0,0,0-9.49,0L98.93,79.27a2.5,2.5,0,0,1-4.33-2.5L135.9,5.24a10.48,10.48,0,0,1,18.15,0l72.1,124.88a2.51,2.51,0,0,1-.91,3.42A2.6,2.6,0,0,1,224,133.87Z"/></svg>